# xmcd
#
# Track frame offsets:
# 150
# 16187
# 29597
# 45620
# 62857
# 76150
# 89212
# 107217
# 123947
# 138430
# 149082
# 166167
# 183195
# 201842
#
# Disc length: 2820 seconds
#
#
# Revision: 0
# Processed by: cddbd v1.5.2PL0 Copyright (c) Steve Scherf et al.
# Submitted via: FreeRIP 2.951 
#
DISCID=c60b020e
DTITLE=Duduca e dalvan - Experimenta
DYEAR=2006
DGENRE=Country
TTITLE0=Experimenta
TTITLE1=seu pai pirou
TTITLE2=moendo moendo
TTITLE3=preciosidade
TTITLE4=tô que nem um canhão
TTITLE5=cai cai cai
TTITLE6=paixão machucada
TTITLE7=espinheira
TTITLE8=são paulo
TTITLE9=realidade
TTITLE10=meus pedaços
TTITLE11=berrante de ouro
TTITLE12=coração de areia
TTITLE13=alo moçada
EXTD=
EXTT0=
EXTT1=
EXTT2=
EXTT3=
EXTT4=
EXTT5=
EXTT6=
EXTT7=
EXTT8=
EXTT9=
EXTT10=
EXTT11=
EXTT12=
EXTT13=
PLAYORDER=
